<svg xmlns="http://www.w3.org/2000/svg" width="17" height="17" viewBox="0 0 97 97"><path data-name="Forma 1" d="M12.447 0h72.106A12.156 12.156 0 0197 12.446v72.107A12.156 12.156 0 0184.553 97H12.447A12.156 12.156 0 010 84.553V12.446A12.156 12.156 0 0112.447 0zm58.215 10.774a4.379 4.379 0 00-4.362 4.367v10.453a4.379 4.379 0 004.367 4.368h10.959a4.38 4.38 0 004.366-4.368V15.141a4.379 4.379 0 00-4.366-4.367H70.662zm15.377 30.245H77.5a28.389 28.389 0 011.245 8.322c0 16.136-13.5 29.216-30.154 29.216S18.44 65.478 18.44 49.342a28.334 28.334 0 011.245-8.322h-8.91V82a3.868 3.868 0 003.857 3.857h67.553A3.867 3.867 0 0086.041 82V41.019zM48.59 29.411c-10.759 0-19.482 8.451-19.482 18.878s8.724 18.878 19.482 18.878 19.485-8.452 19.485-18.878-8.723-18.878-19.485-18.878z" fill-rule="evenodd"/></svg>
