<svg xmlns="http://www.w3.org/2000/svg" width="68" height="52" viewBox="0 0 70 55" xml:space="preserve"><path fill="#fff" d="M7.4 43.6c1.7 0 2.9 1.1 2.9 2.8 0 1.7-1.2 2.8-2.9 2.8H5v3.4h-.8v-9h3.2zM5 48.4h2.1c1.4 0 2.2-.8 2.2-2 0-1.3-.8-2.1-2.2-2.1H5v4.1zM13.4 52.6v-9h.9v9h-.9zM23.2 52.6h-5.4v-9h.9v8.2h4.5v.8zM31.2 49.8h-3.8l-1 2.8h-.9l3.4-9h.8l3.4 9h-.9l-1-2.8zm-3.5-.7H31l-1.6-4.4h-.1l-1.6 4.4zM37.4 52.6v-8.2h-3v-.8h6.9v.8h-3v8.2h-.9zM49.7 52.6h-5.4v-9h5.4v.8h-4.6v3.2h4.4v.8h-4.4v3.5h4.6v.7zM53.4 50.2c.1 1 1.1 1.7 2.5 1.7 1.3 0 2.3-.8 2.3-1.8 0-.8-.6-1.4-2-1.7l-1-.3c-1.7-.4-2.4-1.1-2.4-2.3 0-1.5 1.3-2.5 3.1-2.5 1.7 0 3 1 3.1 2.4h-.9c-.1-1-1-1.6-2.3-1.6-1.3 0-2.2.7-2.2 1.7 0 .8.6 1.2 1.9 1.6l.9.2c1.9.5 2.6 1.2 2.6 2.5 0 1.6-1.3 2.6-3.3 2.6-1.9 0-3.2-1-3.3-2.5h1zM65.6 51.3h-.7v-2.8h-2.8v-.7h2.8V45h.7v2.8h2.8v.7h-2.8v2.8z"/><g><path fill="#fff" d="M4.6 36.6c1.4-2.1 1.4-2.1 1.9-3 .9-1.6.9-1.9 2.1-3.4 2-2.6 2.6-3.8 4.5-6.3s2.2-2.9 5.2-6.2c1.6-1.8 3.2-3.2 4.7-4.3 4.3-3.3 9.2-2.7 12.7 1.2C38 18 39.6 20.9 39.8 25c.2 3.7 2.9 6.3 6 7.9 2.4 1.2 5 2.1 7.6 2.8 1.6.4 2.9.5 4.5.7.2 0 .9.1 1.2.2.6.1.8.5-.1 1-.2.1-1.1.4-1.3.4-1.6 0-2.5 0-4.1-.2-3.4-.5-6.7-1.2-9.8-2.8-4.4-2.3-6.8-5.8-7.4-10.8-.5-3.9-2.1-7.7-5.4-10-3.3-2.3-7.1.3-10.4 3.4l-.1.1c-3.7 4.3-3.9 4.4-7.3 9-2.3 3.2-3.4 4.9-5.6 8.4-1.4 2.2-3.9 2.8-3 1.5z"/></g><g><path fill="#fff" d="M8.6 39.9h-.1c-4-.7-7-3.5-5.6-7.5.6-1.8 2.1-3.2 3.6-4.2 5.3-3.5 8.2-8.7 10.5-14.3 1.1-2.7 1.9-5.4 3.1-8 1.4-3.1 4.2-4 6.7-1.5 2.3 2.4 4.3 5.1 6.5 7.6 1.3 1.6 2.1 2.8 3.6 4.9 1.3 1.9 7 8.9 11.2 12.7 4.6 4.2 10 7.2 16.1 8.1 1.5.3 1.9.4 2.9.8.9.4 1.2 1 1.1 1.4-.2.7-.9.8-1.7.5-2.5-.7-5.1-.9-7.5-1.7-3.9-1.3-7.6-3.3-10.7-6.1-2.3-2.1-4.5-4.3-6.8-6.5-1.6-1.7-2.5-2.8-3.6-4.3-.8-1-1.3-1.6-1.9-2.5-.9-1.2-1.9-2.4-2.8-3.6-1.7-2.2-3.3-4.4-5-6.6-.6-.8-1.3-1.8-2.1-2.4-1.3-1.1-2.2-.8-2.9.7-.9 2.1-1.9 4.2-2.6 6.4-1.3 3.8-3.1 7.3-5.6 10.4-1.6 2.1-3.5 3.9-5.4 5.8-.9.9-2.5 1.4-3.4 2.3-1.6 1.6-1.1 3.7.8 4.9.7.4 1.6.5 2.5.6.4 0 1.5-.3 1.9-.3 1.1.2 1.3.6 1.3 1.4 0 .5-.8 1-1.3 1-2 .1-1 0-2.8 0z"/></g></svg>
